<?xml version="1.0" encoding="UTF-8" standalone="no"?>
<!-- Created with Inkscape (http://www.inkscape.org/) -->

<svg
   version="1.1"
   id="svg2"
   width="160.08362"
   height="242.95763"
   viewBox="0 0 160.08362 242.95763"
   xmlns="http://www.w3.org/2000/svg"
   xmlns:svg="http://www.w3.org/2000/svg">
  <defs
     id="defs6" />
  <g
     id="layer1">
    <g
       id="g2716"
       transform="matrix(0.13333333,0,0,-0.13333333,-393.65082,592.14627)">
      <path
         d="m 4152.99,4025.02 c 1.38,-5.69 -74.61,-49.79 -83.95,-50.27 l -12.94,1.03 -37.1,-22.45 c 0,0 -5.62,5 -10.65,13.25 -2.74,4.43 -5.29,9.84 -6.71,15.91 -0.8,3.38 -1.24,6.98 -1.14,10.74 0.05,1.94 19.18,15.19 19.18,15.19 0,0 -9.46,28.89 1.05,42.03 6.21,7.75 12.49,15.63 15.36,25.14 1.51,4.97 2.35,10.17 4.41,14.92 2.06,4.78 5.64,9.26 10.62,10.74 0.58,0.18 1.2,0.31 1.8,0.16 1.23,-0.3 1.87,-1.61 2.24,-2.87 0.05,-0.13 0.08,-0.27 0.11,-0.4 3.61,-14.12 2.22,-29.48 -3.86,-42.71 0,0 45.79,16.87 56.39,25.58 0,0 27.1,12.37 30.45,7.76 1.25,-1.7 1.9,-3.45 2.2,-4.98 0.55,-2.57 0.15,-4.5 0.15,-4.5 0,0 -53.52,-33.86 -54.36,-36.71 -0.87,-2.87 53.28,15.73 58.07,13.48 1.36,-0.63 2.26,-2.41 2.79,-4.63 0.5,-2.05 0.73,-4.48 0.8,-6.73 0.16,-3.78 -0.1,-7.04 -0.1,-7.04 0,0 0.35,-0.66 0.92,-1.74 0.71,-1.48 1.76,-3.71 2.7,-6.13 0.63,-1.57 1.19,-3.21 1.57,-4.77"
         style="fill:#f9ab7a;fill-opacity:1;fill-rule:nonzero;stroke:none"
         id="path438" />
      <path
         d="m 4152.99,4025.02 c 1.38,-5.69 -74.61,-49.79 -83.95,-50.27 l -12.94,1.03 -37.1,-22.45 c 0,0 -5.62,5 -10.65,13.25 16.38,7.43 30.79,19.19 41.29,33.8 10.07,13.98 16.61,30.43 27.98,43.37 7.13,8.14 15.93,14.63 25.07,20.46 9.66,6.12 19.67,11.65 30.06,16.47 2.96,1.37 5.46,2.4 7.7,3.11 0.55,-2.57 0.15,-4.5 0.15,-4.5 0,0 -53.52,-33.86 -54.36,-36.71 -0.87,-2.87 53.28,15.73 58.07,13.48 1.36,-0.63 2.26,-2.41 2.79,-4.63 0.5,-2.05 0.73,-4.48 0.8,-6.73 0.16,-3.78 -0.1,-7.04 -0.1,-7.04 0,0 0.35,-0.66 0.92,-1.74 0.71,-1.48 1.76,-3.71 2.7,-6.13 0.63,-1.57 1.19,-3.21 1.57,-4.77"
         style="fill:#f57f7b;fill-opacity:1;fill-rule:nonzero;stroke:none"
         id="path440" />
      <path
         d="m 4147.9,4044.7 c -1.5,-0.7 -3.03,-1.38 -4.6,-2.03 -9.18,-3.8 -17.91,-6.15 -24.3,-7.51 -6,-1.27 -9.94,-1.72 -10.41,-1.77 0.4,0.24 3.86,2.19 9.29,4.93 5.8,2.95 13.8,6.82 22.84,10.56 2.18,0.89 4.3,1.73 6.38,2.55 0.5,-2.05 0.73,-4.48 0.8,-6.73"
         style="fill:#f36367;fill-opacity:1;fill-rule:nonzero;stroke:none"
         id="path442" />
      <path
         d="m 4151.42,4029.79 c -14.48,-6.33 -27.16,-8.9 -27.97,-9.06 0.65,0.51 10.94,8.4 25.27,15.19 0.71,-1.48 1.76,-3.71 2.7,-6.13"
         style="fill:#f36367;fill-opacity:1;fill-rule:nonzero;stroke:none"
         id="path444" />
      <path
         d="m 4055.16,4098.54 c -0.78,-0.75 -1.56,-1.52 -2.27,-2.29 -5.84,-6.48 -7.39,-15.64 -10.86,-23.62 -4.81,-11 -13.57,-20.29 -16.25,-31.98 -2.25,-9.89 0.15,-20.13 1.68,-30.15 0.46,-3.1 0.83,-6.43 -0.6,-9.23 -1.17,-2.3 -3.38,-3.86 -5.51,-5.33 -6.45,-4.49 -13.34,-8.74 -19.71,-13.45 -0.8,3.38 -1.24,6.98 -1.14,10.74 0.05,1.94 19.18,15.19 19.18,15.19 0,0 -9.46,28.89 1.05,42.03 6.21,7.75 12.49,15.63 15.36,25.14 1.51,4.97 2.35,10.17 4.41,14.92 2.06,4.78 5.64,9.26 10.62,10.74 0.58,0.18 1.2,0.31 1.8,0.16 1.23,-0.3 1.87,-1.61 2.24,-2.87"
         style="fill:#fbcda7;fill-opacity:1;fill-rule:nonzero;stroke:none"
         id="path446" />
      <path
         d="m 4060.17,4043.56 c 6.29,-6.75 8.43,-16.65 7.26,-25.81 -1.14,-8.86 -5.03,-18.41 -10.46,-25.46 0.12,7.42 4.73,14.94 5.74,22.51 0.87,6.61 2.47,23.39 -2.54,28.76"
         style="fill:#f36367;fill-opacity:1;fill-rule:nonzero;stroke:none"
         id="path448" />
      <path
         d="m 3745.36,3850.46 c 16.52,-21.64 31.29,-37.04 43.77,-42.76 1.19,-0.56 2.37,-1.02 3.51,-1.39 62.1,-19.92 238.7,154.48 238.7,154.48 l -8.56,11.7 -11.18,15.31 -6.98,9.53 c 0,0 -126.93,-64.31 -180.14,-102.4 l -0.26,-0.18 c -3.07,-2.21 -5.89,-4.33 -8.42,-6.33 0,0 -11.48,20.64 -18.45,30.11 l -51.99,-68.07"
         style="fill:#f9ab7a;fill-opacity:1;fill-rule:nonzero;stroke:none"
         id="path450" />
      <path
         d="m 3789.13,3807.7 c 1.19,-0.56 2.37,-1.02 3.51,-1.39 62.1,-19.92 238.7,154.48 238.7,154.48 l -8.56,11.7 -2.3,0.61 c 0,0 -143.01,-156.67 -231.33,-165.4 h -0.02"
         style="fill:#f57f7b;fill-opacity:1;fill-rule:nonzero;stroke:none"
         id="path452" />
      <path
         d="m 3815.8,3888.42 195.8,99.38 -6.98,9.53 c 0,0 -126.93,-64.31 -180.14,-102.4 l -0.26,-0.18 -8.42,-6.33"
         style="fill:#fbcda7;fill-opacity:1;fill-rule:nonzero;stroke:none"
         id="path454" />
      <path
         d="m 3803.23,3926.21 -49.16,-64.36 -15.89,-20.77 c -6.96,5.58 -14.21,11.63 -21.65,18.03 -22.8,19.65 -47.37,42.65 -70.82,65.47 l -10.68,104.65 c -2.12,20.75 1.22,42.12 12.06,59.93 3.1,5.09 9.63,4.87 26.57,-9.06 7.51,-6.18 79.47,-90 79.47,-90 19.16,-22.5 38.41,-47.99 50.1,-63.89"
         style="fill:#fccf41;fill-opacity:1;fill-rule:nonzero;stroke:none"
         id="path456" />
      <path
         d="m 3747.54,3855.2 -9.36,-14.12 c -6.96,5.58 -14.21,11.63 -21.65,18.03 l -49.69,45.17 v 26.38 l 80.7,-75.46"
         style="fill:#e8b02f;fill-opacity:1;fill-rule:nonzero;stroke:none"
         id="path458" />
      <path
         d="M 3656.57,4078.69 Z"
         style="fill:#284d77;fill-opacity:1;fill-rule:nonzero;stroke:none"
         id="path460" />
      <path
         d="m 3655.15,4091.87 c 49.48,-8.64 123.88,-121.21 149.38,-163.97 l -7.17,-9.38 -42.08,60.15 c -27.04,38.65 -64.57,81.67 -100.13,113.2"
         style="fill:#fce27e;fill-opacity:1;fill-rule:nonzero;stroke:none"
         id="path462" />
      <path
         d="m 3579.07,3746.52 -72.1,-162.19 -21.47,-48.27 c 0,0 -111.84,8.18 -156.53,74.73 -44.67,66.56 50.64,272.55 50.64,272.55 l 6.3,2.03 147.92,47.74 45.24,-186.59"
         style="fill:#1b3458;fill-opacity:1;fill-rule:nonzero;stroke:none"
         id="path464" />
      <path
         d="m 3506.97,3584.33 -21.47,-48.27 c 0,0 -111.84,8.18 -156.53,74.73 -44.67,66.56 50.64,272.55 50.64,272.55 l 6.3,2.03 c -16.12,-62.02 -55.8,-263.78 99.59,-295.56 7.98,-1.62 15.12,-3.45 21.47,-5.48"
         style="fill:#2b4e76;fill-opacity:1;fill-rule:nonzero;stroke:none"
         id="path466" />
      <path
         d="m 3606.72,2671.07 c 0,0 4.25,-25.86 7.23,-29.12 2.97,-3.25 149.14,0 149.14,0 l -0.21,22.53 -87.38,29.55 -68.78,-22.96"
         style="fill:#fde9de;fill-opacity:1;fill-rule:nonzero;stroke:none"
         id="path468" />
      <path
         d="m 3762.88,2664.48 c 0,0 -147.14,-10.87 -154.87,-0.7 -5.27,6.94 -3.61,77.41 -3.61,77.41 l 39.94,1.63 c 0,0 124.48,-78.34 118.54,-78.34"
         style="fill:#f6851e;fill-opacity:1;fill-rule:nonzero;stroke:none"
         id="path470" />
      <path
         d="m 3428.41,2662.03 c -3.44,-13.37 -30.49,-32.95 -42.94,-41.38 -3.69,-2.51 -8.59,-2.28 -12.03,0.58 -10.91,9.08 -33.69,29.19 -35.92,40.8 -0.69,3.53 0.58,10.31 2.97,18.64 1.88,6.73 4.52,14.49 7.4,22.38 9.06,24.82 20.68,50.99 20.68,50.99 l 44.96,-1.83 c 0,0 10.39,-39.01 14.19,-66.74 0,-0.06 0.02,-0.15 0.02,-0.22 1.37,-10.03 1.86,-18.58 0.67,-23.22"
         style="fill:#fde9de;fill-opacity:1;fill-rule:nonzero;stroke:none"
         id="path472" />
      <path
         d="m 3427.72,2685.47 c -5.43,-13.25 -30.43,-31.31 -42.25,-39.32 -3.69,-2.49 -8.59,-2.26 -12.03,0.59 -8.96,7.48 -25.97,22.42 -32.95,33.93 1.88,6.73 4.52,14.49 7.4,22.38 9.06,24.82 20.68,50.99 20.68,50.99 l 44.96,-1.83 c 0,0 10.39,-39.01 14.19,-66.74"
         style="fill:#f6851e;fill-opacity:1;fill-rule:nonzero;stroke:none"
         id="path474" />
      <path
         d="m 3367.6,2709.22 c 0.56,-2.9 3.61,-4.52 6.37,-5.57 10.2,-3.82 22.42,-4.95 31.39,1.22 0.66,0.45 1.31,0.96 1.69,1.66 0.7,1.33 0.23,3.06 -0.78,4.17 -1.01,1.13 -2.43,1.78 -3.83,2.33 -5.01,2 -37.46,9.56 -34.84,-3.81"
         style="fill:#fde9de;fill-opacity:1;fill-rule:nonzero;stroke:none"
         id="path476" />
      <path
         d="m 3364.29,2684.39 c 0.57,-2.89 3.62,-4.51 6.37,-5.55 10.2,-3.83 22.42,-4.97 31.39,1.21 0.66,0.45 1.3,0.96 1.69,1.66 0.71,1.32 0.22,3.05 -0.78,4.17 -1.01,1.13 -2.43,1.77 -3.83,2.32 -5.01,2.01 -37.46,9.56 -34.84,-3.81"
         style="fill:#fde9de;fill-opacity:1;fill-rule:nonzero;stroke:none"
         id="path478" />
      <path
         d="m 3675.54,2698.11 c 2.27,-0.84 4.8,0.7 6.8,2.3 7.38,5.86 13.82,14.4 13.69,23.71 0,0.68 -0.05,1.38 -0.37,1.97 -0.59,1.1 -2,1.49 -3.25,1.24 -1.24,-0.25 -2.35,-1.02 -3.38,-1.82 -3.71,-2.84 -23.97,-23.53 -13.49,-27.4"
         style="fill:#fde9de;fill-opacity:1;fill-rule:nonzero;stroke:none"
         id="path480" />
      <path
         d="m 3691.21,2684.89 c 2.26,-0.84 4.8,0.7 6.8,2.3 7.38,5.87 13.82,14.4 13.69,23.71 -0.01,0.68 -0.06,1.38 -0.37,1.97 -0.59,1.1 -2,1.49 -3.25,1.23 -1.24,-0.25 -2.35,-1.02 -3.39,-1.81 -3.7,-2.84 -23.96,-23.53 -13.48,-27.4"
         style="fill:#fde9de;fill-opacity:1;fill-rule:nonzero;stroke:none"
         id="path482" />
      <path
         d="m 3702.73,3137.94 c -9.28,-26.77 -33.41,-411.02 -33.41,-411.02 h -70.18 c 0,0 -27.56,302.97 -22.17,330.72 7.33,37.92 31.77,110.03 31.77,110.03 -2.66,14.87 -6.64,306.35 -6.64,306.35 l -18.52,1.49 c 0,0 -58.25,-319.74 -75.46,-356.91 -17.22,-37.17 -83.41,-377.7 -83.41,-377.7 h -68.85 c 0,0 12.89,273.69 14.58,295.93 3.22,42.73 58.25,148.69 58.25,148.69 0,0 -2.57,284.11 0,327.17 0.09,1.52 0.2,3.07 0.31,4.6 0.48,6.47 1.2,12.97 2.11,19.5 0.15,1.26 0.34,2.49 0.54,3.74 0.2,1.39 0.42,2.76 0.63,4.15 0.28,1.73 0.55,3.45 0.87,5.18 0.24,1.45 0.5,2.88 0.78,4.33 2.32,12.53 5.26,25.02 8.56,37.18 0.81,3.01 1.67,6.01 2.52,8.99 0.54,1.85 1.07,3.69 1.63,5.52 0.4,1.35 0.81,2.7 1.23,4.03 2.09,6.77 4.25,13.41 6.45,19.84 0.44,1.21 0.86,2.42 1.28,3.61 0.43,1.27 0.87,2.53 1.32,3.76 0.18,0.54 0.38,1.07 0.56,1.59 0.08,0.24 0.16,0.46 0.24,0.67 l 0.01,0.02 c 0.62,1.71 1.24,3.42 1.85,5.08 1.4,3.76 2.79,7.43 4.17,11.01 1.37,3.55 2.74,7.01 4.1,10.34 h 0.02 c 1.89,4.71 3.77,9.2 5.58,13.45 0.37,0.87 0.75,1.76 1.11,2.61 1.78,4.14 3.51,8.01 5.12,11.61 0.42,0.89 0.82,1.78 1.19,2.63 3.42,7.47 6.36,13.59 8.54,18.02 v 0.02 c 0.46,0.93 0.89,1.8 1.29,2.58 0.2,0.42 0.38,0.79 0.58,1.15 1.47,2.92 2.28,4.47 2.28,4.47 h 206.52 c 0,0 1.3,-5.78 3.43,-15.61 0.61,-2.86 1.28,-6.04 2.04,-9.53 0.53,-2.5 1.11,-5.18 1.71,-8.01 0.57,-2.74 1.19,-5.62 1.8,-8.61 3.28,-15.55 7.16,-34.32 11.09,-54.26 8.26,-41.8 16.85,-88.82 20.96,-122.6 9.28,-75.84 -29.11,-339.04 -38.38,-365.81"
         style="fill:#363950;fill-opacity:1;fill-rule:nonzero;stroke:none"
         id="path484" />
      <path
         d="m 3520.17,3721.14 c 0,0 -2.44,-7.07 -6.4,-18.35 -1.84,-5.29 -4.02,-11.48 -6.45,-18.31 -2.5,-7.05 -5.25,-14.76 -8.18,-22.82 -1.59,-4.4 -3.24,-8.91 -4.9,-13.48 -1.43,-3.93 -2.9,-7.9 -4.35,-11.88 -12.57,-33.93 -25.84,-67.93 -32.95,-80.4 -15.98,-28.06 0,-359.18 0,-359.18 0,0 -61.44,-148.94 -67.39,-154.89 -4.95,-4.95 -18.13,-226.39 -22.45,-300.93 h -11.24 c 0,0 12.89,273.69 14.58,295.93 3.22,42.73 58.25,148.69 58.25,148.69 0,0 -2.57,284.11 0,327.17 0.09,1.52 0.2,3.07 0.31,4.6 0.48,6.47 1.2,12.97 2.11,19.5 0.15,1.26 0.34,2.49 0.54,3.74 0.2,1.39 0.42,2.76 0.63,4.15 0.28,1.73 0.55,3.45 0.87,5.18 0.24,1.45 0.5,2.88 0.78,4.33 2.32,12.53 5.26,25.02 8.56,37.18 0.81,3.01 1.67,6.01 2.52,8.99 0.54,1.85 1.07,3.69 1.63,5.52 0.4,1.35 0.81,2.7 1.23,4.03 2.09,6.77 4.25,13.41 6.45,19.84 0.44,1.21 0.86,2.42 1.28,3.61 0.43,1.27 0.87,2.53 1.32,3.76 0.18,0.54 0.38,1.07 0.56,1.59 0.08,0.24 0.16,0.46 0.24,0.67 l 0.01,0.02 c 0.62,1.71 1.24,3.42 1.85,5.08 1.4,3.76 2.79,7.43 4.17,11.01 1.37,3.55 2.74,7.01 4.1,10.34 h 0.02 c 1.89,4.71 3.77,9.2 5.58,13.45 0.37,0.87 0.75,1.76 1.11,2.61 1.78,4.14 3.51,8.01 5.12,11.61 0.42,0.89 0.82,1.78 1.19,2.63 3.42,7.47 6.36,13.59 8.54,18.02 v 0.02 c 0.46,0.93 0.89,1.8 1.29,2.58 0.2,0.42 0.38,0.79 0.58,1.15 1.47,2.92 2.28,4.47 2.28,4.47 h 18.02 l 1.7,-0.24 6.89,-0.99"
         style="fill:#282b3f;fill-opacity:1;fill-rule:nonzero;stroke:none"
         id="path486" />
      <path
         d="m 3720.15,3626.35 c -59.82,-26.21 -165.58,-6.43 -230.26,9.95 -4.05,1.01 -7.96,2.03 -11.68,3.03 -4.28,1.14 -8.34,2.26 -12.09,3.31 -2.29,0.64 -4.47,1.25 -6.54,1.84 1.14,3.04 2.25,6.04 3.38,8.96 0.26,0.7 0.54,1.37 0.79,2.05 1.06,2.72 2.09,5.38 3.14,7.96 0.32,0.79 0.64,1.59 0.96,2.38 h 0.02 c 1.89,4.71 3.77,9.2 5.58,13.45 0.15,0.35 0.31,0.73 0.45,1.09 0.25,0.51 0.44,1.03 0.66,1.52 1.49,3.44 2.92,6.68 4.29,9.74 0.28,0.64 0.55,1.25 0.83,1.87 0.42,0.89 0.82,1.78 1.19,2.63 3.42,7.47 6.36,13.59 8.54,18.02 v 0.02 c 0.46,0.93 0.89,1.8 1.29,2.58 0.2,0.42 0.38,0.79 0.58,1.15 1.47,2.92 2.28,4.47 2.28,4.47 h 206.52 c 0,0 1.3,-5.78 3.43,-15.61 0.61,-2.86 1.28,-6.04 2.04,-9.53 0.53,-2.5 1.11,-5.18 1.71,-8.01 0.57,-2.74 1.19,-5.62 1.8,-8.61 3.28,-15.55 7.16,-34.32 11.09,-54.26"
         style="fill:#282b3f;fill-opacity:1;fill-rule:nonzero;stroke:none"
         id="path488" />
      <path
         d="m 3629.23,3175.54 -2.11,272.71 -25.02,25.77 c 0,0 3.98,-291.48 6.64,-306.35 0,0 -24.44,-72.11 -31.77,-110.03 -5.39,-27.75 22.17,-330.72 22.17,-330.72 h 15.63 l -20.9,310.94 35.36,137.68"
         style="fill:#282b3f;fill-opacity:1;fill-rule:nonzero;stroke:none"
         id="path490" />
      <path
         d="m 3468.53,3125.96 c 0.48,-1.22 1.1,-2.51 2.26,-3.13 1.16,-0.61 2.59,-0.4 3.86,-0.05 6.45,1.78 11.65,6.54 15.81,11.77 9.05,11.32 28.21,50.28 1.24,50.87 -26.49,0.59 -30.08,-41.95 -23.17,-59.46"
         style="fill:#52546e;fill-opacity:1;fill-rule:nonzero;stroke:none"
         id="path492" />
      <path
         d="m 3648.99,3115 c 2.05,-5.8 5.35,-11.86 11.15,-13.89 4.78,-1.68 10.25,-0.09 14.3,2.97 4.06,3.05 6.93,7.39 9.51,11.77 4.72,8.02 8.79,16.62 10.13,25.83 2.71,18.7 -11.64,43.19 -33.06,33.88 -21.71,-9.44 -18.36,-42.76 -12.03,-60.56"
         style="fill:#52546e;fill-opacity:1;fill-rule:nonzero;stroke:none"
         id="path494" />
      <path
         d="m 3518.16,3722.37 c -2.15,-5.92 -5.14,-11.56 -9.19,-16.73 -1.21,-1.54 -2.52,-3.05 -3.95,-4.52 -8.79,-9.05 -19.68,-15.47 -31.12,-20.75 0.25,0.51 0.44,1.03 0.66,1.52 1.49,3.44 2.92,6.68 4.29,9.74 6.69,3.63 13.02,7.88 18.55,13.12 5.57,5.28 9.45,11.22 12.17,17.62 h 8.59"
         style="fill:#52546e;fill-opacity:1;fill-rule:nonzero;stroke:none"
         id="path496" />
      <path
         d="m 3534.16,3722.37 c -0.27,-1.17 -0.56,-2.33 -0.9,-3.47 -3.77,-13.31 -10.71,-25.64 -20.54,-35.81 -5.1,-5.26 -10.76,-9.79 -16.83,-13.74 -5.11,-3.32 -10.49,-6.23 -16.03,-8.86 -5.5,-2.62 -11.18,-4.94 -16.9,-7.05 0.26,0.7 0.54,1.37 0.79,2.05 1.06,2.72 2.09,5.38 3.14,7.96 0.3,0.12 0.58,0.24 0.88,0.36 11.85,4.84 23.23,10.8 33.02,19.02 1.39,1.17 2.76,2.38 4.09,3.65 10.05,9.62 17,21.53 20.67,34.48 0.14,0.48 0.26,0.93 0.38,1.41 h 8.23"
         style="fill:#52546e;fill-opacity:1;fill-rule:nonzero;stroke:none"
         id="path498" />
      <path
         d="m 3705.55,3697.23 c -5.36,1.59 -10.39,4.39 -14.95,8.2 -5.15,4.33 -10.69,10.35 -14.76,16.94 h 9.06 c 4.76,-6.63 11.37,-12.31 18.61,-15.61 0.61,-2.86 1.28,-6.04 2.04,-9.53"
         style="fill:#52546e;fill-opacity:1;fill-rule:nonzero;stroke:none"
         id="path500" />
      <path
         d="m 3709.06,3680.61 c -22.36,4.78 -41.54,20.45 -50.52,41.76 h 8.68 c 7.93,-16.34 22.74,-28.4 40.04,-33.15 0.57,-2.74 1.19,-5.62 1.8,-8.61"
         style="fill:#52546e;fill-opacity:1;fill-rule:nonzero;stroke:none"
         id="path502" />
      <path
         d="m 3700.08,3722.37 c -81.61,-68.47 -211.6,-10.15 -211.6,-10.15 0.53,20.3 -20.39,110.33 -37.89,192.15 -4.71,22.07 -9.17,43.51 -12.9,62.85 -5.99,30.96 -4.26,58.79 -1.08,77.94 2.24,13.71 5.25,23 6.69,25.88 1.71,3.42 8.02,8.68 16.19,14.34 0.04,0.02 0.09,0.06 0.13,0.08 1.47,0.99 2.69,1.8 3.62,2.42 0.2,0.12 0.37,0.24 0.53,0.36 0.52,0.33 0.9,0.59 1.18,0.78 0.08,0.05 0.16,0.09 0.22,0.13 0.05,0.06 0.11,0.08 0.17,0.12 14.28,9.25 31.72,18.59 40.65,21.77 0.1,0.03 0.22,0.07 0.32,0.11 2.92,1.04 5.8,1.99 8.5,2.85 10.98,3.45 19.48,5.39 19.48,5.39 h 66.23 c 0,0 0.1,0.02 0.28,0.02 0.06,0 0.14,0 0.22,0.02 0.23,0.02 0.55,0.05 0.95,0.05 0.04,0.01 0.06,0.01 0.1,0.01 2.02,0.05 6.06,-0.17 12.05,-1.68 v -0.02 c 2.36,-0.6 5.01,-1.4 7.96,-2.47 7.83,-2.84 17.76,-7.58 29.76,-15.44 7.32,-4.81 15.41,-10.79 24.24,-18.22 49.65,-41.7 47.06,-121.67 17.58,-179.04 -8.82,-17.14 6.42,-180.25 6.42,-180.25"
         style="fill:#fccf41;fill-opacity:1;fill-rule:nonzero;stroke:none"
         id="path504" />
      <path
         d="m 3681.91,3910.82 c 0,0 -2.42,0.12 -6.79,0.34 -4.34,0.27 -10.61,0.67 -18.36,1.15 -15.36,0.75 -36.42,1.93 -57.72,-3.77 -5.44,-1.43 -10.88,-3.12 -16.35,-4.6 -5.48,-1.5 -11.04,-2.68 -16.28,-3.42 -10.55,-1.52 -20.1,-1.54 -28.06,-0.9 -4.05,0.33 -7.75,1.01 -10.88,2.04 -3.14,1.01 -5.69,2.41 -7.51,3.83 -1.83,1.42 -2.91,2.84 -3.58,3.8 -0.61,1.02 -0.88,1.54 -0.88,1.54 0,0 0.45,-0.39 1.32,-1.14 0.9,-0.69 2.27,-1.63 4.2,-2.37 3.85,-1.56 9.82,-2 17.19,-0.93 7.5,1.04 16.37,2.71 25.9,5.32 4.79,1.3 9.64,2.84 14.8,4.62 5.17,1.77 10.69,3.71 16.68,5.3 12.16,3.21 24.36,3.67 34.9,2.63 10.62,-0.97 19.82,-3.19 27.4,-5.28 7.57,-2.14 13.54,-4.25 17.66,-5.75 4.11,-1.5 6.36,-2.41 6.36,-2.41"
         style="fill:#e8b02f;fill-opacity:1;fill-rule:nonzero;stroke:none"
         id="path506" />
      <path
         d="m 2952.4,4005.03 c -1.39,-5.7 74.61,-49.79 83.94,-50.28 l 12.95,1.03 37.09,-22.45 c 0,0 5.62,5.01 10.66,13.25 2.74,4.43 5.28,9.84 6.7,15.91 0.81,3.38 1.25,6.98 1.15,10.74 -0.06,1.94 -19.19,15.2 -19.19,15.2 0,0 9.46,28.89 -1.05,42.03 -6.21,7.74 -12.49,15.63 -15.35,25.14 -1.52,4.96 -2.36,10.16 -4.42,14.92 -2.06,4.77 -5.64,9.25 -10.62,10.73 -0.58,0.19 -1.2,0.31 -1.8,0.17 -1.23,-0.31 -1.87,-1.62 -2.24,-2.87 -0.05,-0.14 -0.08,-0.28 -0.11,-0.4 -3.61,-14.12 -2.21,-29.49 3.86,-42.72 0,0 -45.78,16.87 -56.39,25.58 0,0 -27.1,12.37 -30.46,7.77 -1.23,-1.71 -1.89,-3.45 -2.18,-4.98 -0.55,-2.57 -0.15,-4.51 -0.15,-4.51 0,0 53.5,-33.86 54.36,-36.71 0.85,-2.86 -53.3,15.74 -58.08,13.49 -1.36,-0.64 -2.25,-2.41 -2.78,-4.64 -0.51,-2.05 -0.74,-4.47 -0.8,-6.73 -0.17,-3.78 0.1,-7.04 0.1,-7.04 0,0 -0.36,-0.65 -0.92,-1.74 -0.71,-1.47 -1.77,-3.7 -2.71,-6.12 -0.63,-1.57 -1.18,-3.22 -1.56,-4.77"
         style="fill:#f9ab7a;fill-opacity:1;fill-rule:nonzero;stroke:none"
         id="path508" />
      <path
         d="m 2952.4,4005.03 c -1.39,-5.7 74.61,-49.79 83.94,-50.28 l 12.95,1.03 37.09,-22.45 c 0,0 5.62,5.01 10.66,13.25 -16.38,7.44 -30.79,19.19 -41.3,33.8 -10.07,13.99 -16.61,30.43 -27.97,43.38 -7.14,8.14 -15.94,14.62 -25.07,20.45 -9.67,6.12 -19.67,11.66 -30.06,16.48 -2.97,1.36 -5.46,2.4 -7.7,3.11 -0.55,-2.57 -0.15,-4.51 -0.15,-4.51 0,0 53.5,-33.86 54.36,-36.71 0.85,-2.86 -53.3,15.74 -58.08,13.49 -1.36,-0.64 -2.25,-2.41 -2.78,-4.64 -0.51,-2.05 -0.74,-4.47 -0.8,-6.73 -0.17,-3.78 0.1,-7.04 0.1,-7.04 0,0 -0.36,-0.65 -0.92,-1.74 -0.71,-1.47 -1.77,-3.7 -2.71,-6.12 -0.63,-1.57 -1.18,-3.22 -1.56,-4.77"
         style="fill:#f57f7b;fill-opacity:1;fill-rule:nonzero;stroke:none"
         id="path510" />
      <path
         d="m 2957.49,4024.7 c 1.49,-0.69 3.02,-1.38 4.59,-2.02 9.18,-3.81 17.92,-6.16 24.3,-7.51 6,-1.27 9.94,-1.72 10.42,-1.77 -0.41,0.23 -3.87,2.19 -9.29,4.94 -5.81,2.93 -13.81,6.8 -22.84,10.54 -2.18,0.89 -4.32,1.75 -6.38,2.55 -0.51,-2.05 -0.74,-4.47 -0.8,-6.73"
         style="fill:#f36367;fill-opacity:1;fill-rule:nonzero;stroke:none"
         id="path512" />
      <path
         d="m 2953.96,4009.8 c 14.48,-6.34 27.17,-8.91 27.96,-9.07 -0.64,0.52 -10.94,8.4 -25.25,15.19 -0.71,-1.47 -1.77,-3.7 -2.71,-6.12"
         style="fill:#f36367;fill-opacity:1;fill-rule:nonzero;stroke:none"
         id="path514" />
      <path
         d="m 3050.22,4078.55 c 0.79,-0.76 1.56,-1.52 2.28,-2.3 5.84,-6.48 7.38,-15.63 10.85,-23.61 4.81,-11 13.57,-20.29 16.25,-31.99 2.26,-9.88 -0.15,-20.12 -1.68,-30.15 -0.45,-3.1 -0.82,-6.43 0.6,-9.23 1.18,-2.29 3.39,-3.86 5.51,-5.33 6.46,-4.49 13.34,-8.74 19.71,-13.45 0.81,3.38 1.25,6.98 1.15,10.74 -0.06,1.94 -19.19,15.2 -19.19,15.2 0,0 9.46,28.89 -1.05,42.03 -6.21,7.74 -12.49,15.63 -15.35,25.14 -1.52,4.96 -2.36,10.16 -4.42,14.92 -2.06,4.77 -5.64,9.25 -10.62,10.73 -0.58,0.19 -1.2,0.31 -1.8,0.17 -1.23,-0.31 -1.87,-1.62 -2.24,-2.87"
         style="fill:#fbcda7;fill-opacity:1;fill-rule:nonzero;stroke:none"
         id="path516" />
      <path
         d="m 3045.21,4023.57 c -6.29,-6.76 -8.43,-16.66 -7.26,-25.81 1.14,-8.86 5.03,-18.42 10.46,-25.47 -0.11,7.42 -4.73,14.95 -5.73,22.51 -0.88,6.61 -2.47,23.39 2.53,28.77"
         style="fill:#f36367;fill-opacity:1;fill-rule:nonzero;stroke:none"
         id="path518" />
      <path
         d="m 3360.02,3830.47 c -16.52,-21.65 -31.28,-37.05 -43.77,-42.77 -1.2,-0.55 -2.36,-1.02 -3.5,-1.39 -62.11,-19.92 -238.71,154.48 -238.71,154.48 l 8.56,11.7 11.18,15.31 6.98,9.53 c 0,0 126.94,-64.3 180.15,-102.4 l 0.26,-0.18 c 3.06,-2.21 5.88,-4.33 8.42,-6.33 0,0 11.47,20.65 18.44,30.12 l 51.99,-68.07"
         style="fill:#f9ab7a;fill-opacity:1;fill-rule:nonzero;stroke:none"
         id="path520" />
      <path
         d="m 3316.25,3787.7 c -1.2,-0.55 -2.36,-1.02 -3.5,-1.39 -62.11,-19.92 -238.71,154.48 -238.71,154.48 l 8.56,11.7 2.3,0.61 c 0,0 143.02,-156.67 231.33,-165.4 h 0.02"
         style="fill:#f57f7b;fill-opacity:1;fill-rule:nonzero;stroke:none"
         id="path522" />
      <path
         d="m 3289.59,3868.42 -195.81,99.38 6.98,9.53 c 0,0 126.94,-64.3 180.15,-102.4 l 0.26,-0.18 8.42,-6.33"
         style="fill:#fbcda7;fill-opacity:1;fill-rule:nonzero;stroke:none"
         id="path524" />
      <path
         d="m 3459.66,3904.57 10.69,104.66 c 2.12,20.74 -1.23,42.13 -12.06,59.94 -3.09,5.1 -9.63,4.87 -26.56,-9.06 -7.51,-6.17 -79.48,-90 -79.48,-90 -19.17,-22.5 -38.41,-48 -50.1,-63.9 l 65.05,-85.12 c 28.32,22.67 61.37,53.22 92.46,83.48"
         style="fill:#fccf41;fill-opacity:1;fill-rule:nonzero;stroke:none"
         id="path526" />
      <path
         d="m 3455.14,3917.76 c -0.19,-4.91 -3.03,-20.5 -3.03,-20.5 0,0 -74.74,-68.03 -84.91,-76.18 l -7.18,9.38 c 12.2,9.54 81.09,75.41 95.12,87.3"
         style="fill:#e8b02f;fill-opacity:1;fill-rule:nonzero;stroke:none"
         id="path528" />
      <path
         d="M 3448.81,4058.69 Z"
         style="fill:#284d77;fill-opacity:1;fill-rule:nonzero;stroke:none"
         id="path530" />
      <path
         d="m 3450.23,4071.88 c -49.47,-8.65 -123.88,-121.22 -149.38,-163.98 l 7.17,-9.37 42.08,60.14 c 27.05,38.66 64.57,81.67 100.13,113.21"
         style="fill:#fce27e;fill-opacity:1;fill-rule:nonzero;stroke:none"
         id="path532" />
      <path
         d="m 3438.09,4070.88 c 0,0 21.3,28.16 46.72,30 0,0 41.57,-301.88 -35.73,-344.89 0,0 48.81,165.69 -10.99,314.89"
         style="fill:#1b3458;fill-opacity:1;fill-rule:nonzero;stroke:none"
         id="path534" />
      <path
         d="m 3708.33,4147.93 c -9.06,-3.05 -18.65,-5.52 -28.62,-7.47 -66.52,-13.04 -149.69,-3.21 -197.86,4.81 -24.21,4.05 -39.6,7.62 -39.6,7.62 0,0 -7.74,65.24 -7.74,90.14 0,15.21 1.14,29.33 3.18,42.42 13.83,89.8 68.46,130.71 72.33,133.51 0.06,0.04 0.12,0.08 0.17,0.12 0.03,0.02 0.05,0.03 0.05,0.03 h 102.53 l 37.62,-19.34 7.52,-3.87 2.86,-1.47 41.17,-21.16 1.01,-35.39 0.79,-28.15 4.59,-161.8"
         style="fill:#470a27;fill-opacity:1;fill-rule:nonzero;stroke:none"
         id="path536" />
      <path
         d="m 3687.6,4160.68 c -1.91,-6.91 -4.49,-13.82 -7.89,-20.22 -66.52,-13.04 -149.69,-3.21 -197.86,4.81 -0.11,0.12 -0.18,0.26 -0.26,0.38 -16.4,24.96 -23.79,55.11 -24.56,84.95 -0.78,29.85 4.78,59.56 12.64,88.35 6.16,22.6 13.88,45.08 26.93,64.52 9.91,14.75 23.16,27.6 39.1,35.64 0.79,0.42 1.59,0.8 2.39,1.18 17.59,8.19 36.89,8.55 56.21,8.4 24.87,-0.21 50.25,-11.8 63.61,-32.79 12.15,-19.06 13.27,-42.83 16.2,-65.26 3.72,-28.41 10.89,-56.29 15.24,-84.63 4.35,-28.34 5.81,-57.69 -1.75,-85.33"
         style="fill:#300c21;fill-opacity:1;fill-rule:nonzero;stroke:none"
         id="path538" />
      <path
         d="m 3715.24,4225.69 c -0.29,1.57 -0.77,3.81 -1.53,6.55 -0.77,2.74 -1.82,5.99 -3.47,9.46 -1.63,3.46 -3.88,7.19 -7.03,10.53 -3.14,3.38 -6.78,5.84 -10.19,7.64 -3.44,1.77 -6.69,2.94 -9.43,3.73 -1.19,0.34 -2.27,0.61 -3.26,0.84 -1.21,1.14 -1.93,1.76 -1.93,1.76 0,0 0.23,-0.54 0.63,-1.47 -0.75,0.15 -1.44,0.29 -2.02,0.39 -1.57,0.27 -2.44,0.38 -2.44,0.38 0,0 2.16,-1.42 5.73,-3.75 0.75,-1.76 1.69,-3.98 2.81,-6.57 2.79,-6.74 6.52,-15.84 8.18,-25.95 1.68,-10.12 1.36,-20.05 1.28,-27.38 -0.03,-3.69 -0.06,-6.69 -0.07,-8.76 0.03,-2.1 0.05,-3.27 0.05,-3.27 0,0 0.47,1.07 1.32,2.99 0.8,1.94 1.93,4.74 3.11,8.3 1.15,3.56 2.39,7.89 3.12,12.9 0.73,4.99 1,10.72 -0.01,16.7 -0.97,5.99 -3.16,11.34 -5.59,15.81 -2.33,4.22 -4.86,7.68 -7.18,10.47 3.56,-2.55 7.45,-5.64 10.96,-9.39 5.32,-5.69 9.3,-12.08 12.35,-16.74 1.53,-2.34 2.77,-4.25 3.64,-5.57 0.91,-1.3 1.41,-2.03 1.41,-2.03 0,0 -0.16,0.87 -0.44,2.43"
         style="fill:#300c21;fill-opacity:1;fill-rule:nonzero;stroke:none"
         id="path540" />
      <path
         d="m 3651.84,4099.88 c -5.21,-18.12 -18.99,-43.99 -55.39,-56.21 -48.33,-16.2 -80.11,44.61 -90.14,67.48 14.77,5.23 27.98,8.24 27.98,8.24 h 66.23 c 0,0 0.1,0.02 0.28,0.02 0.06,0 0.14,0 0.22,0.02 0.23,0.02 0.55,0.05 0.95,0.05 0.04,0.01 0.06,0.01 0.1,0.01 2.02,0.05 6.06,-0.17 12.05,-1.68 v -0.02 c 2.36,-0.6 5.01,-1.4 7.96,-2.47 7.83,-2.84 17.76,-7.58 29.76,-15.44"
         style="fill:#f9ab7a;fill-opacity:1;fill-rule:nonzero;stroke:none"
         id="path542" />
      <path
         d="m 3593.86,4052.96 -59.58,66.43 c 0.1,9.87 0.94,13.59 1.83,38.01 0.96,27.17 1.95,52.62 1.95,52.62 l 76.65,-30.3 c -8.56,-19.16 -12.41,-41.01 -13.69,-61.82 -2.71,-43.86 -7.16,-64.94 -7.16,-64.94"
         style="fill:#f9ab7a;fill-opacity:1;fill-rule:nonzero;stroke:none"
         id="path544" />
      <path
         d="m 3614.71,4179.72 c -8.56,-19.16 -12.41,-41.01 -13.69,-61.82 -2.43,-1.01 -4.8,-1.94 -7.02,-2.71 -8.9,-3.1 -37.49,22.27 -57.89,42.21 0.96,27.17 1.95,52.62 1.95,52.62 l 76.65,-30.3"
         style="fill:#f57f7b;fill-opacity:1;fill-rule:nonzero;stroke:none"
         id="path546" />
      <path
         d="m 3695.12,4270.79 c -1.55,-7.09 -3.53,-14.54 -6,-22.32 0,0 3.44,-38.38 -0.59,-46.99 -4.05,-8.61 -29.86,-62.23 -57,-58.91 -22.63,2.76 -78,35.91 -97.24,55.68 -3.86,3.93 -6.25,7.33 -6.69,9.85 -2.64,15.23 -11.72,82.41 -12.57,88.03 -2.31,15.23 -8.7,130.59 130.77,98.5 25.12,-5.8 44.93,-25.26 50.61,-50.41 4.11,-18.14 5.47,-42.51 -1.29,-73.43"
         style="fill:#f9ab7a;fill-opacity:1;fill-rule:nonzero;stroke:none"
         id="path548" />
      <path
         d="m 3689.12,4248.47 c 0,0 3.44,-38.38 -0.59,-46.99 -4.05,-8.61 -29.86,-62.23 -57,-58.91 -22.63,2.76 -78,35.91 -97.24,55.68 23.57,-16.36 86.42,-58.13 104.85,-51.71 22.84,7.94 48.65,58.48 48.15,63.48 -0.49,5.03 -1.98,37.78 -1.98,37.78 0,0 4.61,10.34 9.81,22.99 -1.55,-7.09 -3.53,-14.54 -6,-22.32"
         style="fill:#fbcda7;fill-opacity:1;fill-rule:nonzero;stroke:none"
         id="path550" />
      <path
         d="m 3533.83,4210.04 c -17.51,1.37 -30.25,11.76 -37.07,20.45 -1.54,1.96 -2.77,3.84 -3.69,5.51 -5,9.06 -6.44,40.51 6.44,47.82 9.02,5.12 15.58,-2.3 18.7,-7.22 v -0.01 c 1.34,-2.09 2.04,-3.72 2.04,-3.72 l 13.58,-62.83"
         style="fill:#fbcda7;fill-opacity:1;fill-rule:nonzero;stroke:none"
         id="path552" />
      <path
         d="m 3533.83,4210.04 c -17.51,1.37 -30.25,11.76 -37.07,20.45 -0.59,0.89 -1.11,1.74 -1.55,2.54 -5,9.06 -6.44,40.52 6.44,47.81 7.31,4.16 13,0.07 16.56,-4.24 v -0.01 c 1.34,-2.09 2.04,-3.72 2.04,-3.72 l 13.58,-62.83"
         style="fill:#f9ab7a;fill-opacity:1;fill-rule:nonzero;stroke:none"
         id="path554" />
      <path
         d="m 3495.44,4258.84 c -0.65,-2.52 -0.23,-5.13 0.59,-7.61 3.52,-10.56 14.06,-18.61 24.16,-26.09 -3.05,5.11 -4.17,10.9 -3.55,16.52 0.22,1.97 0.65,3.91 0.66,5.88 0.08,7.91 -18.05,26.17 -21.86,11.3"
         style="fill:#f57f7b;fill-opacity:1;fill-rule:nonzero;stroke:none"
         id="path556" />
      <path
         d="m 3525.25,4222.13 c 0,0 -0.2,0.12 -0.58,0.33 -0.36,0.22 -0.95,0.51 -1.62,0.97 -1.35,0.91 -3.22,2.35 -4.98,4.5 -1.75,2.14 -3.34,4.99 -4.1,8.38 -0.67,3.37 -0.54,7.3 1.28,11.09 0.19,0.48 0.46,0.92 0.73,1.39 l 0.21,0.33 c 0.05,0.08 0.01,0.02 0.02,0.04 v -0.02 l 0.01,0.01 v 0 c 0,0 0.01,-0.01 -0.03,0.05 l -0.16,0.31 -0.35,0.6 c -0.23,0.4 -0.46,0.79 -0.7,1.18 -0.95,1.54 -1.99,2.99 -3.04,4.35 -1.06,1.34 -2.15,2.58 -3.24,3.72 -1.1,1.12 -2.15,2.18 -3.19,2.97 -1.05,0.79 -2.2,1.3 -3.27,1.44 -1.08,0.12 -2.1,-0.12 -2.78,-0.46 -0.7,-0.35 -1.08,-0.79 -1.24,-1.12 -0.16,-0.33 -0.15,-0.53 -0.18,-0.53 0,0 -0.05,0.19 0.04,0.56 0.06,0.37 0.34,0.92 1.04,1.44 0.68,0.5 1.75,0.97 3.18,1 1.43,0.01 2.96,-0.46 4.33,-1.24 1.38,-0.78 2.62,-1.75 3.93,-2.81 1.3,-1.08 2.61,-2.29 3.87,-3.64 1.27,-1.35 2.49,-2.84 3.59,-4.45 0.29,-0.4 0.55,-0.82 0.81,-1.23 l 0.39,-0.63 0.52,-0.89 0.35,-0.63 c -0.09,-0.21 -0.23,-0.42 -0.34,-0.62 l -0.52,-0.9 c -0.23,-0.39 -0.47,-0.78 -0.63,-1.21 -1.57,-3.28 -1.92,-6.72 -1.63,-9.8 0.37,-3.09 1.4,-5.83 2.67,-8 1.27,-2.18 2.72,-3.81 3.81,-4.87 0.53,-0.54 1.03,-0.91 1.33,-1.19 0.31,-0.27 0.47,-0.42 0.47,-0.42"
         style="fill:#f36367;fill-opacity:1;fill-rule:nonzero;stroke:none"
         id="path558" />
      <path
         d="m 3707.76,4298.4 c 0,0 -17.8,23.83 -27.73,14.4 -9.93,-9.44 -5.45,-10.42 -5.45,-10.42 l 33.18,-3.98"
         style="fill:#470a27;fill-opacity:1;fill-rule:nonzero;stroke:none"
         id="path560" />
      <path
         d="m 3566.86,4294.75 c 0,0 32.85,37.83 46.3,24.39 7.85,-7.84 2.39,-13.18 2.39,-13.18 l -48.69,-11.21"
         style="fill:#470a27;fill-opacity:1;fill-rule:nonzero;stroke:none"
         id="path562" />
      <path
         d="m 3637.94,4223.81 c -2.85,1.05 -5.69,2.6 -8.71,2.3 3,-6.89 8.82,-12.5 15.8,-15.25 0.54,-0.21 1.1,-0.41 1.68,-0.39 0.71,0.03 1.36,0.37 1.98,0.74 3.86,2.26 7.28,5.3 9.98,8.88 0.54,0.72 1.07,1.5 1.28,2.38 0.69,2.93 -1.32,2.29 -3.07,1.6 -2.01,-0.79 -4.14,-1.32 -6.29,-1.61 -4.24,-0.56 -8.62,-0.12 -12.65,1.35"
         style="fill:#f57f7b;fill-opacity:1;fill-rule:nonzero;stroke:none"
         id="path564" />
      <path
         d="m 3645.65,4212.54 c 1.8,1.6 3.8,2.95 5.62,4.51 2.27,1.91 4.37,4.01 6.22,6.34 -9.52,6.56 -9.42,16.5 -8.96,27.76 0.21,5.08 1.62,10.1 4.1,14.54 1.29,2.34 2.88,4.51 4.69,6.46 0.94,0.99 1.92,1.93 2.97,2.8 1.01,0.85 2.06,1.32 3.29,1.83 -0.59,-0.67 -0.99,-1.45 -1.51,-2.14 -1.39,-1.8 -2.84,-3.48 -4.03,-5.43 -1.19,-1.94 -2.22,-4 -3.06,-6.11 -1.69,-4.24 -2.69,-8.78 -2.85,-13.34 -0.16,-4.47 0.5,-9.01 2.14,-13.18 1.87,-4.78 5.19,-9.51 9.53,-12.29 0.03,-0.03 -6.51,-7.58 -7.14,-8.2 -1.66,-1.59 -3.46,-3.03 -5.4,-4.25 -1.9,-1.21 -4.08,-2.64 -6.41,-2.54 -0.73,0.03 -1.48,0.19 -2.07,0.62 0.4,0.26 0.78,0.56 1.12,0.9 0.15,0.14 0.29,0.29 0.44,0.45 0.42,0.44 0.86,0.86 1.31,1.27"
         style="fill:#f36367;fill-opacity:1;fill-rule:nonzero;stroke:none"
         id="path566" />
      <path
         d="m 3693.05,4257.56 c 0,0 -0.44,0.25 -1.21,0.7 -0.75,0.43 -1.85,0.99 -3.17,1.55 -2.64,1.16 -6.18,2.1 -9.91,2.46 -3.71,0.36 -7.37,0.09 -10.19,-0.53 -1.4,-0.3 -2.58,-0.64 -3.41,-0.92 -0.83,-0.29 -1.3,-0.46 -1.3,-0.46 0,0 0.18,0.46 0.65,1.25 0.47,0.8 1.25,1.88 2.47,3.03 2.38,2.29 6.95,4.74 12.41,4.22 5.47,-0.54 9.5,-3.8 11.39,-6.5 0.99,-1.36 1.55,-2.58 1.86,-3.44 0.3,-0.87 0.41,-1.36 0.41,-1.36"
         style="fill:#121414;fill-opacity:1;fill-rule:nonzero;stroke:none"
         id="path568" />
      <path
         d="m 3621.88,4261.7 c 0,0 -0.74,0.33 -2.06,0.92 -1.29,0.58 -3.18,1.32 -5.44,2.07 -4.55,1.52 -10.63,2.79 -17.02,3.26 -6.38,0.47 -12.66,0.12 -17.5,-0.7 -2.4,-0.4 -4.44,-0.86 -5.86,-1.23 -1.43,-0.39 -2.25,-0.61 -2.25,-0.61 0,0 0.33,0.62 1.13,1.66 0.8,1.06 2.14,2.5 4.25,4.02 4.07,3.05 11.93,6.28 21.32,5.59 9.38,-0.7 16.31,-5.03 19.55,-8.61 1.7,-1.81 2.66,-3.43 3.19,-4.57 0.53,-1.14 0.69,-1.8 0.69,-1.8"
         style="fill:#121414;fill-opacity:1;fill-rule:nonzero;stroke:none"
         id="path570" />
      <path
         d="m 3629.24,4183.29 c 7.11,-3.58 15.81,-3.83 23.12,-0.69 -2.55,-3.69 -6.1,-5.87 -10.57,-5.7 -4.49,0.17 -9.53,3.08 -12.55,6.39"
         style="fill:#f36367;fill-opacity:1;fill-rule:nonzero;stroke:none"
         id="path572" />
      <path
         d="m 3602.41,4203.51 c 18.14,-13.24 43.01,-16.64 64.05,-8.8 -11.53,-2.39 -23.32,-1.57 -34.97,0.08 -8.99,1.27 -21.48,3.76 -29.08,8.72"
         style="fill:#f36367;fill-opacity:1;fill-rule:nonzero;stroke:none"
         id="path574" />
      <path
         d="m 3673.78,4219.82 c 1.53,-4.07 10.32,-4.54 19.65,-1.05 9.32,3.49 15.64,9.62 14.12,13.69 -1.52,4.08 -10.32,4.54 -19.64,1.06 -9.33,-3.5 -15.65,-9.63 -14.13,-13.7"
         style="fill:#f57f7b;fill-opacity:1;fill-rule:nonzero;stroke:none"
         id="path576" />
      <path
         d="m 3556.49,4238.82 c -1.59,-6.13 8.52,-14.07 22.58,-17.71 14.06,-3.65 26.75,-1.62 28.35,4.52 1.58,6.15 -8.53,14.07 -22.59,17.72 -14.06,3.64 -26.75,1.61 -28.34,-4.53"
         style="fill:#f57f7b;fill-opacity:1;fill-rule:nonzero;stroke:none"
         id="path578" />
      <path
         d="m 3707.28,4247.04 c -0.54,-0.65 -1.1,-1.29 -1.71,-1.88 -0.91,-0.96 -1.92,-1.85 -2.98,-2.64 -1.51,-1.18 -3.12,-2.21 -4.85,-3.06 -2.22,-1.12 -4.61,-1.97 -7.12,-2.5 -0.22,-0.05 -0.44,-0.08 -0.66,-0.12 -0.1,-0.02 -0.2,-0.04 -0.3,-0.04 -1.23,-0.24 -2.5,-0.38 -3.81,-0.42 -0.42,-0.04 -0.85,-0.04 -1.29,-0.04 -15.47,0 -28.22,11.96 -29.43,27.1 -0.08,0.8 -0.12,1.61 -0.12,2.43 0,1.29 0.08,2.58 0.26,3.83 1.69,13.05 11.91,23.44 24.88,25.38 1.43,0.22 2.92,0.33 4.41,0.33 5.1,0 9.91,-1.3 14.1,-3.58 2.06,-1.14 3.97,-2.49 5.7,-4.08 5.98,-5.37 9.73,-13.2 9.73,-21.88 0,-7.15 -2.57,-13.72 -6.81,-18.83 z m -104.32,-12.43 c -2.88,-0.86 -5.93,-1.29 -9.09,-1.29 -10.1,0 -19.14,4.57 -25.16,11.74 -4.83,5.72 -7.72,13.08 -7.72,21.13 0,18.15 14.75,32.88 32.88,32.88 18.13,0 32.88,-14.73 32.88,-32.88 0,-14.98 -10.07,-27.65 -23.79,-31.58 z m 101.18,60.85 c -1.53,1.04 -3.15,1.93 -4.87,2.7 -1.6,0.75 -3.29,1.37 -5.02,1.84 -3.08,0.9 -6.34,1.38 -9.69,1.38 -0.48,0 -0.94,0 -1.41,-0.04 -1.39,-0.05 -2.78,-0.19 -4.14,-0.4 -15.25,-2.4 -27.26,-14.57 -29.52,-29.87 -6.16,2.74 -12.87,1.21 -17.06,-0.37 -1.82,15.62 -12.93,28.46 -27.66,32.78 -3.46,1.01 -7.13,1.55 -10.9,1.55 -10.01,0 -19.13,-3.81 -26,-10.05 -4.49,-4.07 -8.02,-9.16 -10.23,-14.87 l -35.78,5.84 -5.52,0.91 h -0.08 l -9.79,1.61 -0.16,-1.03 -0.32,-1.91 -0.45,-2.8 -0.02,-0.14 0.73,-0.13 5.5,-0.88 0.54,-0.1 h 0.02 l 2.38,-0.38 0.02,-0.01 2.49,-0.4 1.4,-0.24 1.91,-0.31 14.71,-2.39 20.69,-3.38 c -0.57,-2.65 -0.89,-5.37 -0.89,-8.18 0,-8.32 2.65,-16.05 7.13,-22.39 7.03,-9.94 18.63,-16.44 31.72,-16.44 4.59,0 8.99,0.79 13.08,2.27 14.4,5.18 24.89,18.69 25.66,34.69 3.12,1.43 10.9,4.25 16.52,0.06 0.08,-1.87 0.3,-3.72 0.66,-5.5 0.53,-2.62 1.35,-5.15 2.44,-7.53 5.16,-11.49 16.29,-19.78 29.41,-20.83 0.95,-0.1 1.92,-0.13 2.92,-0.13 0.54,0 1.05,0.01 1.59,0.03 1.39,0.06 2.76,0.2 4.11,0.44 0.24,0.02 0.47,0.06 0.72,0.12 0.11,0 0.23,0.04 0.35,0.06 2.86,0.55 5.6,1.45 8.16,2.64 1.19,0.55 2.35,1.17 3.46,1.85 0.98,0.6 1.93,1.23 2.84,1.92 0.12,0.08 0.22,0.16 0.32,0.24 1.52,1.17 2.94,2.44 4.23,3.83 6.01,6.36 9.71,14.92 9.71,24.35 0,12.33 -6.34,23.24 -15.91,29.59"
         style="fill:#121414;fill-opacity:1;fill-rule:nonzero;stroke:none"
         id="path580" />
      <path
         d="m 3705.79,4336.72 c -0.22,-12.29 -1.39,-22.24 -2.05,-26.99 -0.28,-1.96 -0.45,-3.03 -0.45,-3.03 -44.87,31.53 -45.02,67.8 -43.77,79.23 -12.18,-63.55 -146.83,-100.09 -146.83,-100.09 l -18.91,-8.23 c 0,0 -5.38,5.5 -10.17,16.56 -7.68,17.69 -13.85,49.6 5.84,96.03 5.14,12.16 12.28,21.55 20.57,28.76 0.06,0.04 0.12,0.08 0.17,0.12 43.36,37.43 119.04,15.8 119.04,15.8 68.02,6.22 77.23,-58.34 76.56,-98.16"
         style="fill:#300c21;fill-opacity:1;fill-rule:nonzero;stroke:none"
         id="path582" />
      <path
         d="m 3548.46,4254.96 c -0.5,1.51 -1.26,3.68 -2.38,6.29 -1.12,2.61 -2.58,5.7 -4.68,8.92 -2.07,3.22 -4.79,6.62 -8.36,9.53 -3.55,2.92 -7.49,4.88 -11.11,6.21 -3.64,1.32 -7,2.04 -9.84,2.47 -1.22,0.18 -2.32,0.3 -3.34,0.41 -1.34,0.96 -2.13,1.48 -2.13,1.48 0,0 0.29,-0.5 0.81,-1.38 -0.76,0.07 -1.47,0.11 -2.05,0.13 -1.59,0.07 -2.47,0.06 -2.47,0.06 0,0 2.33,-1.13 6.17,-2.97 0.97,-1.65 2.2,-3.72 3.64,-6.15 3.66,-6.31 8.56,-14.85 11.54,-24.64 2.99,-9.82 3.97,-19.69 4.87,-26.98 0.45,-3.65 0.82,-6.63 1.08,-8.69 0.3,-2.07 0.47,-3.23 0.47,-3.23 0,0 0.33,1.12 0.92,3.13 0.54,2.02 1.29,4.96 1.98,8.64 0.68,3.68 1.34,8.13 1.41,13.2 0.07,5.05 -0.42,10.76 -2.21,16.54 -1.75,5.82 -4.63,10.84 -7.62,14.95 -2.86,3.88 -5.83,6.97 -8.5,9.44 3.88,-2.06 8.13,-4.61 12.1,-7.87 6.03,-4.94 10.81,-10.75 14.45,-14.97 1.82,-2.12 3.31,-3.84 4.34,-5.05 1.07,-1.17 1.66,-1.83 1.66,-1.83 0,0 -0.26,0.85 -0.75,2.36"
         style="fill:#300c21;fill-opacity:1;fill-rule:nonzero;stroke:none"
         id="path584" />
      <path
         d="m 3705.79,4336.72 c -0.97,0.32 -1.91,0.72 -2.84,1.16 -21.29,9.66 -35.09,37.85 -42.18,56.55 -3.87,10.23 -5.76,17.62 -5.76,17.62 -0.18,-3.5 -1.88,-7.71 -4.62,-12.28 -13.83,-23.11 -53.94,-55.76 -53.94,-55.76 l 5.95,18.39 c 0,0 -10.96,-17.87 -52.46,-44.04 -16.9,-10.65 -42.22,-18.56 -66.33,-24.19 -17.07,-3.99 -33.54,-6.85 -45.92,-8.72 2.57,16.74 6.56,31.79 11.39,45.21 21.05,58.53 57.79,86.01 60.94,88.3 0.06,0.04 0.12,0.08 0.17,0.12 43.36,37.43 119.04,15.8 119.04,15.8 4.83,0.44 9.35,0.52 13.61,0.28 55.66,-3.1 63.58,-61.44 62.95,-98.44"
         style="fill:#470a27;fill-opacity:1;fill-rule:nonzero;stroke:none"
         id="path586" />
      <path
         d="m 3642.84,4435.16 c -7.87,-16.11 -23.34,-28 -38.37,-38.39 2.66,4.87 3.86,10.5 3.4,16.03 -19.46,-28.34 -47.15,-50.96 -78.78,-64.42 3.77,7.44 5.54,15.89 5.1,24.21 -19.52,-17.77 -43.33,-30.7 -68.77,-37.63 -4.31,-1.17 -10.38,-3.28 -16.34,-4.3 21.05,58.53 57.79,86.01 60.94,88.3 0.06,0.04 0.12,0.08 0.17,0.12 43.36,37.43 119.04,15.8 119.04,15.8 4.83,0.44 9.35,0.52 13.61,0.28"
         style="fill:#630d30;fill-opacity:1;fill-rule:nonzero;stroke:none"
         id="path588" />
      <path
         d="m 3804.53,3939.1 -74.69,-100.78 24.66,-17.23 73.97,90.9 -23.94,27.11"
         style="fill:#fde9de;fill-opacity:1;fill-rule:nonzero;stroke:none"
         id="path590" />
      <path
         d="m 3300.85,3918.52 72.44,-97.44 -19.07,-13.65 -74.83,86.99 21.46,24.1"
         style="fill:#fde9de;fill-opacity:1;fill-rule:nonzero;stroke:none"
         id="path592" />
      <path
         d="m 3822.31,4097.75 -3.61,-11.54 -3.62,11.54 c -4.65,14.86 -14.31,27.29 -27.06,34.82 v 0 0 c 12.75,7.53 22.41,19.95 27.06,34.82 l 3.62,11.54 3.61,-11.54 c 4.65,-14.87 14.31,-27.29 27.06,-34.82 v 0 0 c -12.75,-7.53 -22.41,-19.96 -27.06,-34.82"
         style="fill:#f7a944;fill-opacity:1;fill-rule:nonzero;stroke:none"
         id="path594" />
      <path
         d="m 3780.89,4174.31 -2.51,-8.02 -2.51,8.02 c -3.23,10.32 -9.94,18.95 -18.8,24.17 v 0 0 c 8.86,5.23 15.57,13.86 18.8,24.19 l 2.51,8.01 2.51,-8.01 c 3.23,-10.33 9.94,-18.96 18.79,-24.19 v 0 0 c -8.85,-5.22 -15.56,-13.85 -18.79,-24.17"
         style="fill:#f7a944;fill-opacity:1;fill-rule:nonzero;stroke:none"
         id="path596" />
      <path
         d="m 3374.95,4213.4 -3.62,11.55 -3.6,-11.55 c -4.65,-14.85 -14.32,-27.29 -27.07,-34.81 v 0 0 c 12.75,-7.53 22.42,-19.96 27.07,-34.82 l 3.6,-11.54 3.62,11.54 c 4.65,14.86 14.31,27.29 27.06,34.82 v 0 0 c -12.75,7.52 -22.41,19.96 -27.06,34.81"
         style="fill:#f7a944;fill-opacity:1;fill-rule:nonzero;stroke:none"
         id="path598" />
      <path
         d="m 3333.53,4136.85 -2.51,8.01 -2.51,-8.01 c -3.23,-10.31 -9.94,-18.96 -18.79,-24.17 v 0 0 c 8.85,-5.24 15.56,-13.87 18.79,-24.18 l 2.51,-8.02 2.51,8.02 c 3.23,10.31 9.94,18.94 18.79,24.18 v 0 0 c -8.85,5.21 -15.56,13.86 -18.79,24.17"
         style="fill:#f7a944;fill-opacity:1;fill-rule:nonzero;stroke:none"
         id="path600" />
    </g>
  </g>
</svg>
